<?xml version="1.0" encoding="UTF-8"?>
<svg version="1.1" xmlns="http://www.w3.org/2000/svg" width="174" height="160">
<path d="M0 0 C16.3640559 0.23196471 31.65715734 7.84421351 43.1875 19.25 C57.67096665 35.58973374 61.15027396 52.17265151 60.3828125 73.34179688 C59.9973255 79.08169832 58.61616085 84.01438223 56.1875 89.25 C55.76339844 90.18328125 55.33929688 91.1165625 54.90234375 92.078125 C47.49623727 106.84907831 35.81432757 118.4275994 20.23046875 124.25390625 C1.63529449 130.34090167 -15.39867305 130.09996729 -33.125 121.67578125 C-49.47378078 112.7298285 -59.42688868 99.35032647 -65.62890625 81.9609375 C-66.99472882 77.16623169 -67.27846224 72.20220335 -66.8125 67.25 C-65.06770901 65.50520901 -62.49848707 66.03967964 -60.125 65.9375 C-53.98354485 65.47069106 -50.38126408 64.0966352 -46.1875 59.44921875 C-44.51723709 56.7777471 -44.51931492 54.99745006 -44.375 51.875 C-43.9296875 48.93359375 -43.9296875 48.93359375 -42.8125 46.25 C-39.90736025 44.20773012 -37.01779484 42.94488251 -33.7421875 41.5859375 C-29.75324826 39.76698121 -28.16003051 37.89271975 -25.8125 34.25 C-24.30656359 29.73219076 -24.42112726 25.13850662 -24.19140625 20.40234375 C-23.8125 17.25 -23.8125 17.25 -21.8125 15.25 C-20.38794926 14.79100919 -18.94773634 14.37957457 -17.5 14 C-12.54770724 12.42354668 -10.66263314 10.56838355 -7.8125 6.25 C-6.57233331 3.5705355 -6.57233331 3.5705355 -5.8125 1.25 C-4.16034709 -0.40215291 -2.27429221 0.03904364 0 0 Z " fill="#F6F3F5" transform="translate(92.8125,16.75)"/>
<path d="M0 0 C16.3640559 0.23196471 31.65715734 7.84421351 43.1875 19.25 C57.67096665 35.58973374 61.15027396 52.17265151 60.3828125 73.34179688 C59.9973255 79.08169832 58.61616085 84.01438223 56.1875 89.25 C55.76339844 90.18328125 55.33929688 91.1165625 54.90234375 92.078125 C47.49623727 106.84907831 35.81432757 118.4275994 20.23046875 124.25390625 C1.63529449 130.34090167 -15.39867305 130.09996729 -33.125 121.67578125 C-49.47378078 112.7298285 -59.42688868 99.35032647 -65.62890625 81.9609375 C-66.99472882 77.16623169 -67.27846224 72.20220335 -66.8125 67.25 C-65.06770901 65.50520901 -62.49848707 66.03967964 -60.125 65.9375 C-53.98354485 65.47069106 -50.38126408 64.0966352 -46.1875 59.44921875 C-44.51723709 56.7777471 -44.51931492 54.99745006 -44.375 51.875 C-43.9296875 48.93359375 -43.9296875 48.93359375 -42.8125 46.25 C-39.90736025 44.20773012 -37.01779484 42.94488251 -33.7421875 41.5859375 C-29.75324826 39.76698121 -28.16003051 37.89271975 -25.8125 34.25 C-24.30656359 29.73219076 -24.42112726 25.13850662 -24.19140625 20.40234375 C-23.8125 17.25 -23.8125 17.25 -21.8125 15.25 C-20.38794926 14.79100919 -18.94773634 14.37957457 -17.5 14 C-12.54770724 12.42354668 -10.66263314 10.56838355 -7.8125 6.25 C-6.57233331 3.5705355 -6.57233331 3.5705355 -5.8125 1.25 C-4.16034709 -0.40215291 -2.27429221 0.03904364 0 0 Z M-4.4453125 14.2109375 C-7.31459643 18.49026953 -11.0292129 20.61001585 -15.8125 22.25 C-15.82667969 22.85585938 -15.84085938 23.46171875 -15.85546875 24.0859375 C-16.33534686 32.51622856 -18.75961359 39.86306578 -25.1875 45.625 C-27.54186062 47.48587018 -29.84642911 48.7508366 -32.5625 50 C-36.72167825 52.87943109 -36.86694564 54.98437402 -38.0234375 59.71484375 C-39.78061924 65.3604425 -43.70268714 68.88934493 -48.8125 71.625 C-52.09381102 73.10158996 -55.21446683 73.89019668 -58.8125 74.25 C-57.54331627 86.30724545 -50.60972002 98.42574777 -41.81640625 106.62890625 C-26.70669346 118.85216318 -11.76112512 121.72131293 7.1875 120.25 C20.42263352 118.22404126 32.96072486 110.05999927 41.41015625 99.82421875 C51.71152419 84.90421552 55.0874912 69.63535061 52.125 51.75 C48.87501953 37.12508791 40.32076781 24.82475921 27.9375 16.375 C17.72336262 10.36242268 3.39728382 2.21388475 -4.4453125 14.2109375 Z " fill="#E03887" transform="translate(92.8125,16.75)"/>
<path d="M0 0 C5.33739473 1.98844117 8.45333824 4.90667648 11 10 C11.48222032 14.74183315 11.54897994 17.78438919 8.875 21.8125 C6.27895196 24.98141897 3.98586516 26.77357995 0 28 C-4.72840017 28.27213814 -8.63625756 27.68690125 -12.4375 24.75 C-15.95298939 20.97727968 -16.82070908 18.64350006 -17.375 13.5625 C-16.78688714 7.97542783 -14.40354499 5.18521577 -10.1875 1.625 C-6.37985365 -0.31615304 -4.22575274 -0.52821909 0 0 Z " fill="#E03A88" transform="translate(104,35)"/>
<path d="M0 0 C3.79727475 1.79507533 5.53142782 3.33492982 7.9375 6.75 C9.2514266 10.76906961 9.30902178 14.01740041 8 18 C5.85640671 21.61781172 3.11652534 24.78925725 -1 26 C-5.26220512 26.47357835 -7.4460029 26.29830613 -11.25 24.25 C-14.55168843 21.54861856 -16.72150998 19.68348471 -17.43359375 15.37890625 C-17.44417406 7.750501 -17.44417406 7.750501 -15.1875 3.9375 C-10.20075694 -0.47932956 -6.44870303 -0.8035767 0 0 Z " fill="#E03988" transform="translate(74,85)"/>
<path d="M0 0 C4.38773175 2.19386588 7.09334197 4.44520582 9 9 C9.5701247 14.22614305 8.82117855 17.56671942 6 22 C2.75953856 24.93666818 0.06485065 25.89954239 -4.3125 26.3125 C-8.75886282 25.93568959 -10.63948122 24.90226622 -14 22 C-16.910372 17.634442 -17.6506249 14.20499921 -17 9 C-12.84189223 1.27779985 -8.66294936 -1.35358584 0 0 Z " fill="#E03988" transform="translate(52,17)"/>
<path d="M0 0 C2.82876219 2.43405119 4.36886405 3.82199309 5.6875 7.3125 C5.8880815 11.90080192 5.29714772 15.32445025 2.875 19.25 C-1.21153792 23.10302147 -4.63952883 23.75400678 -10.125 23.63671875 C-13.40368104 23.15077138 -15.0775725 21.68287765 -17.3125 19.3125 C-20.28301564 14.85672653 -19.93987491 10.53807394 -19.3125 5.3125 C-15.01811331 -2.2026767 -7.57970451 -3.8613589 0 0 Z " fill="#E03988" transform="translate(132.3125,64.6875)"/>
<path d="M0 0 C3.3792573 2.03005291 6.22397384 4.44794768 8 8 C8.3501723 13.34012755 8.48069602 16.67913597 5 21 C2.09441664 24.16195836 -0.16420763 25.31706791 -4.375 25.625 C-8.97928546 25.43251315 -11.39370113 23.69340519 -14.6875 20.60546875 C-17.20102077 17.53089424 -17.44728202 14.01402369 -17.42578125 10.13671875 C-16.64365115 6.21171725 -13.91214543 3.60282428 -11 1 C-7.48308711 -0.75845645 -3.82789463 -0.68065337 0 0 Z " fill="#E03988" transform="translate(112,95)"/>
<path d="M0 0 C1.9375 1.0625 1.9375 1.0625 3 3 C2.875 6.5625 2.875 6.5625 2 10 C-1.23253796 12.15502531 -2.25150923 12.46856135 -6 12 C-7.8125 10.875 -7.8125 10.875 -9 9 C-9.39365568 5.85075452 -9.52854531 3.88090884 -7.875 1.125 C-5.11909116 -0.52854531 -3.14924548 -0.39365568 0 0 Z " fill="#F6F2F4" transform="translate(104,43)"/>
<path d="M0 0 C2.9375 0.8125 2.9375 0.8125 4.9375 2.8125 C5.30237512 5.65852594 5.33949375 7.1989306 3.75 9.625 C1.28842224 11.23775784 -0.17315736 11.2459014 -3.0625 10.8125 C-4.875 9.625 -4.875 9.625 -6.0625 7.8125 C-6.4943188 4.93370803 -6.44207373 3.44512288 -4.9375 0.9375 C-3.0625 -0.1875 -3.0625 -0.1875 0 0 Z " fill="#F5ECF1" transform="translate(70.0625,92.1875)"/>
<path d="M0 0 C3 0.25 3 0.25 5 2.25 C5.25 5.25 5.25 5.25 5 8.25 C3 10.25 3 10.25 0 10.5 C-3 10.25 -3 10.25 -5 8.25 C-5.25 5.25 -5.25 5.25 -5 2.25 C-3 0.25 -3 0.25 0 0 Z " fill="#F6F2F4" transform="translate(48,24.75)"/>
<path d="M0 0 C3.0625 0.1875 3.0625 0.1875 5.0625 2.1875 C5.3125 4.6875 5.3125 4.6875 5.0625 7.1875 C3.0625 9.1875 3.0625 9.1875 0.0625 9.5 C-0.9275 9.396875 -1.9175 9.29375 -2.9375 9.1875 C-4.9375 6.1875 -4.9375 6.1875 -4.625 3.5625 C-3.63731654 0.1505026 -3.65603948 0.23336422 0 0 Z " fill="#F5F0F3" transform="translate(124.9375,70.8125)"/>
<path d="M0 0 C2.5 0.25 2.5 0.25 4.5 2.25 C4.8125 5.25 4.8125 5.25 4.5 8.25 C1.5 10.25 1.5 10.25 -1.125 9.9375 C-3.5 9.25 -3.5 9.25 -4.5 8.25 C-4.6875 5.3125 -4.6875 5.3125 -4.5 2.25 C-2.5 0.25 -2.5 0.25 0 0 Z " fill="#F5EEF2" transform="translate(107.5,102.75)"/>
<path d="M0 0 C2.625 0.375 2.625 0.375 5 1 C5.625 3.375 5.625 3.375 6 6 C5.34 6.66 4.68 7.32 4 8 C1.375 7.625 1.375 7.625 -1 7 C-1.625 4.625 -1.625 4.625 -2 2 C-1.34 1.34 -0.68 0.68 0 0 Z " fill="#E14590" transform="translate(91,84)"/>
<path d="M0 0 C0.598125 0.226875 1.19625 0.45375 1.8125 0.6875 C2.4375 3.0625 2.4375 3.0625 2.8125 5.6875 C2.1525 6.3475 1.4925 7.0075 0.8125 7.6875 C-1.8125 7.3125 -1.8125 7.3125 -4.1875 6.6875 C-4.875 4.875 -4.875 4.875 -5.1875 2.6875 C-3.58493056 0.24147296 -2.95482043 -0.4221172 0 0 Z " fill="#E14892" transform="translate(126.1875,47.3125)"/>
<path d="M0 0 C1.67542976 0.28604898 3.34385343 0.61781233 5 1 C5.6875 2.8125 5.6875 2.8125 6 5 C4.5625 6.75 4.5625 6.75 3 8 C0.525 7.01 0.525 7.01 -2 6 C-1.125 1.125 -1.125 1.125 0 0 Z " fill="#E14590" transform="translate(131,95)"/>
<path d="M0 0 C2.625 0.375 2.625 0.375 5 1 C5.625 2.875 5.625 2.875 6 5 C4 7 4 7 1.375 7.125 C0.59125 7.08375 -0.1925 7.0425 -1 7 C-1.625 4.625 -1.625 4.625 -2 2 C-1.34 1.34 -0.68 0.68 0 0 Z " fill="#E03E8B" transform="translate(75,67)"/>
<path d="M0 0 C0.78375 0.04125 1.5675 0.0825 2.375 0.125 C3 2.5 3 2.5 3.375 5.125 C2.715 5.785 2.055 6.445 1.375 7.125 C-1.25 6.75 -1.25 6.75 -3.625 6.125 C-4.25 4.25 -4.25 4.25 -4.625 2.125 C-2.625 0.125 -2.625 0.125 0 0 Z " fill="#E03E8B" transform="translate(29.625,53.875)"/>
<path d="M0 0 C2.625 0.375 2.625 0.375 5 1 C5.625 2.875 5.625 2.875 6 5 C5.34 5.66 4.68 6.32 4 7 C1.375 6.625 1.375 6.625 -1 6 C-1.625 4.125 -1.625 4.125 -2 2 C-1.34 1.34 -0.68 0.68 0 0 Z " fill="#E03B8A" transform="translate(99,70)"/>
<path d="M0 0 C1.67542976 0.28604898 3.34385343 0.61781233 5 1 C5.38218767 2.65614657 5.71395102 4.32457024 6 6 C5 7 5 7 2.5 7.125 C0 7 0 7 -1 6 C-1.125 3.5 -1.125 3.5 -1 1 C-0.67 0.67 -0.34 0.34 0 0 Z " fill="#E03988" transform="translate(82,120)"/>
<path d="M0 0 C1.67542976 0.28604898 3.34385343 0.61781233 5 1 C5.38218767 2.65614657 5.71395102 4.32457024 6 6 C5 7 5 7 2.5 7.125 C0 7 0 7 -1 6 C-1.125 3.5 -1.125 3.5 -1 1 C-0.67 0.67 -0.34 0.34 0 0 Z " fill="#E03A89" transform="translate(42,95)"/>
</svg>
