<svg version="1.1" id="Layer_1" xmlns="http://www.w3.org/2000/svg" xmlns:xlink="http://www.w3.org/1999/xlink" x="0px" y="0px"
	 width="100%" viewBox="0 0 178 178" enable-background="new 0 0 178 178" xml:space="preserve">
<path fill="#FEFEFE" opacity="1.000000" stroke="none" 
	d="
M98.238716,178.650070 
	C66.645775,179.000000 35.291542,179.000000 3.468657,179.000000 
	C1.819141,177.585159 2.013450,175.873505 2.014112,174.225128 
	C2.033284,126.452278 1.931689,78.679390 2.114427,30.450294 
	C5.219304,26.718885 13.205523,25.380791 16.786613,27.518328 
	C18.556902,28.575001 19.099880,30.264626 19.286659,32.148895 
	C19.532816,34.632145 19.342730,37.143272 19.793879,39.616280 
	C21.261784,47.662716 26.563702,52.159569 34.744183,51.858208 
	C50.723007,51.269566 66.703484,51.749359 82.681992,51.581879 
	C84.678642,51.560947 86.676895,51.563988 88.658859,51.896259 
	C99.400139,53.697006 105.968292,48.449562 106.537354,37.619621 
	C106.563553,37.120880 106.558205,36.620941 106.575119,36.121861 
	C106.792130,29.719257 107.813667,28.139345 112.007095,27.714333 
	C117.169197,27.191143 121.857277,30.322641 123.026016,35.093567 
	C123.344688,36.394405 123.395844,37.730335 123.401329,39.063255 
	C123.441788,48.885494 123.363441,58.708363 123.442101,68.529747 
	C123.473137,72.405540 122.147255,75.279076 118.691277,77.160622 
	C114.454559,79.467209 111.434341,82.960060 109.315781,87.241928 
	C107.842896,90.218811 105.407440,91.830765 102.520615,93.453125 
	C91.691193,99.539070 82.632721,107.341812 79.266792,120.085670 
	C78.000633,124.879509 76.507896,125.416306 72.178268,122.777161 
	C69.509010,121.150101 66.708878,120.444786 63.645096,120.438049 
	C53.822773,120.416451 44.000488,120.423454 34.178185,120.435852 
	C33.512360,120.436691 32.844543,120.437233 32.182644,120.512543 
	C28.950689,120.880219 25.947742,122.024200 26.143238,125.763947 
	C26.323837,129.218811 29.502672,129.490982 32.215115,129.519440 
	C44.700394,129.650375 57.186909,129.518692 69.672577,129.592117 
	C76.707008,129.633499 78.073372,130.534988 78.930260,137.219040 
	C80.560104,149.932510 87.310776,160.102615 94.488571,170.139404 
	C96.261192,172.618057 99.222069,174.570831 98.238716,178.650070 
z"/>
<path fill="#FEFEFE" opacity="1.000000" stroke="none" 
	d="
M149.255798,178.733368 
	C137.312439,179.000000 125.624878,179.000000 113.468658,179.000000 
	C108.231964,172.812424 102.018524,167.947784 97.539452,161.431229 
	C91.483208,152.620056 87.065704,142.973495 85.737572,132.620987 
	C84.140083,120.168823 93.407059,103.430138 108.267937,100.978798 
	C111.208466,100.493759 114.167854,99.935867 117.178101,99.978676 
	C119.923553,100.017715 120.285835,98.658134 119.279152,96.462143 
	C119.001991,95.857513 118.731720,95.249382 118.434723,94.654579 
	C116.978653,91.738457 116.421547,88.967972 119.580933,86.707039 
	C122.837181,84.376770 126.705757,84.658287 129.557236,87.573906 
	C132.119156,90.193451 133.178116,93.503891 133.486877,97.062180 
	C134.080673,103.905388 137.921783,107.799248 144.337112,109.760635 
	C147.411224,110.700508 150.209229,110.481354 153.074509,109.343987 
	C156.019241,108.175079 159.012405,107.159660 162.187393,106.859154 
	C166.116241,106.487282 169.561081,107.578362 171.703110,111.023430 
	C173.242935,113.499924 175.389267,115.252312 177.660339,117.493591 
	C178.191299,125.177956 177.929001,132.485352 177.938904,140.195892 
	C171.169724,147.878052 169.153290,158.065216 162.380402,165.422699 
	C158.230057,169.931274 153.790207,174.109680 149.255798,178.733368 
z"/>
<path fill="#EBEAEA" opacity="1.000000" stroke="none" 
	d="
M177.148468,116.724350 
	C174.977692,117.196663 173.655212,116.362206 172.552155,114.950073 
	C166.240448,106.869736 164.125885,106.365730 154.248535,110.349632 
	C150.999390,111.660141 147.907364,112.377686 144.162048,111.232063 
	C136.031158,108.744957 132.421799,103.552025 131.874985,95.244965 
	C131.426880,88.437492 126.367905,84.902672 121.299400,87.055336 
	C118.555908,88.220520 117.235291,89.891342 118.936897,92.859726 
	C119.515297,93.868698 119.992905,94.936325 120.499657,95.985329 
	C122.827049,100.803284 122.311852,101.092354 116.818207,101.210800 
	C101.286789,101.545662 90.780678,108.613785 87.060043,127.289108 
	C85.593102,134.652283 88.978172,141.307999 91.578651,147.727005 
	C95.451279,157.286179 101.288925,165.786682 109.160995,172.730576 
	C110.830490,174.203201 113.055725,175.506531 112.998734,178.634384 
	C108.310745,179.000000 103.621490,179.000000 98.466118,179.000000 
	C98.219681,177.176758 97.363388,175.865585 96.150085,174.586670 
	C88.999069,167.048920 84.921448,157.560928 79.908318,148.677002 
	C77.648453,144.672241 77.884659,139.964844 77.290108,135.601044 
	C76.720047,131.417023 74.756493,130.917953 71.324287,130.947388 
	C58.158920,131.060257 44.992004,131.004364 31.825691,130.990616 
	C26.731718,130.985291 23.956089,128.972336 24.020718,125.406219 
	C24.083500,121.941971 27.681568,119.031998 32.098553,119.017838 
	C43.098156,118.982559 54.097958,119.001419 65.097672,119.009506 
	C68.350250,119.011902 71.399139,119.645157 73.688728,122.203674 
	C75.792114,124.554115 77.309875,123.718170 77.749748,121.136566 
	C79.752953,109.379791 87.284889,101.897339 96.611908,95.496155 
	C99.025444,93.839745 100.928902,91.680588 104.100037,91.344620 
	C105.362297,91.210876 106.351616,90.205376 106.947853,88.815666 
	C109.429329,83.031799 112.911263,78.127853 118.912254,75.405151 
	C121.186089,74.373482 122.118301,72.526917 122.072327,69.790092 
	C121.893188,59.126709 122.053696,48.458145 121.977783,37.792290 
	C121.933891,31.625349 116.977638,27.841452 110.890419,29.013714 
	C108.872124,29.402395 108.038460,30.502987 108.022095,32.426590 
	C108.007912,34.093067 108.012794,35.759720 107.996178,37.426163 
	C107.911438,45.922543 103.917610,51.450031 95.884850,54.137871 
	C94.958443,54.447861 93.804489,55.031094 93.043983,54.738701 
	C83.649025,51.126575 73.911545,53.354153 64.362244,53.143623 
	C54.242355,52.920513 44.104786,52.722778 33.941757,53.512764 
	C25.139460,54.196976 18.232334,46.508610 17.990664,37.201870 
	C17.740717,27.576445 15.976794,26.230474 6.399798,28.370964 
	C5.592878,28.551313 4.797087,28.781456 3.586031,29.002432 
	C2.090727,28.256720 2.066940,27.150290 2.329130,25.616428 
	C9.139547,21.804638 17.075445,23.142002 21.902990,28.770933 
	C23.362843,30.473125 24.210392,29.702532 24.950628,28.516172 
	C27.806723,23.938755 31.022594,19.804377 36.053513,17.360712 
	C37.524376,16.646271 37.508282,14.877169 37.777447,13.394537 
	C38.280781,10.622081 38.358593,7.755925 39.803574,4.831725 
	C41.105118,3.968180 42.176960,3.917200 43.656391,4.426844 
	C46.243900,10.126810 44.221504,18.291700 39.672096,21.636642 
	C36.021004,24.321100 32.577923,27.230627 30.207287,31.110332 
	C26.663942,36.909252 29.037558,41.470711 35.774502,41.537964 
	C53.581818,41.715733 71.392136,41.710381 89.199585,41.539165 
	C95.606522,41.477558 97.661507,37.757050 94.937462,31.832113 
	C93.211929,28.079004 90.253036,25.326433 87.078049,22.932158 
	C81.160294,18.469555 79.397636,12.386375 79.707336,5.054008 
	C81.174667,3.799582 82.546967,3.746018 84.357819,4.259958 
	C87.044823,6.767998 86.989410,9.852899 87.303932,12.802639 
	C87.499207,14.634085 87.323074,16.869875 89.202316,17.681429 
	C94.486595,19.963446 97.184097,24.522242 100.012466,29.048212 
	C100.445267,29.740782 101.013847,30.382967 102.339203,31.087467 
	C104.462296,22.437916 111.187241,23.232416 117.723038,23.849224 
	C121.779610,24.232058 124.458672,26.406488 125.375046,30.562674 
	C126.024666,33.509022 126.363846,36.464497 126.354950,39.480743 
	C126.329903,47.977730 126.313591,56.475044 126.360924,64.971855 
	C126.382378,68.822678 126.331291,72.666100 124.990120,76.320274 
	C123.887375,79.324814 124.863274,81.119225 127.802116,82.065025 
	C128.434204,82.268448 129.037247,82.564453 129.650543,82.825203 
	C136.479630,85.728462 136.220764,85.443062 141.737839,80.446022 
	C146.227829,76.379242 150.884842,72.067131 157.860107,72.708580 
	C165.050323,73.369789 169.139130,77.445442 169.317352,84.619232 
	C169.433090,89.277840 169.757980,93.979797 166.497513,97.978935 
	C164.931427,99.899826 166.054672,101.406197 167.716446,102.563835 
	C171.148590,104.954811 174.103973,107.894585 177.427673,111.021027 
	C178.075150,113.074379 178.192398,114.768066 177.148468,116.724350 
z"/>
<path fill="#0E0E0E" opacity="1.000000" stroke="none" 
	d="
M176.892059,117.479416 
	C176.873795,115.295975 176.925705,113.575500 176.903137,111.430161 
	C174.928192,108.525986 175.404617,105.603020 175.401093,102.815300 
	C175.363785,73.341118 175.387665,43.866879 175.373718,14.392666 
	C175.370056,6.657165 175.337982,6.629106 167.597260,6.625355 
	C142.952148,6.613414 118.307030,6.633342 93.661949,6.604375 
	C91.020256,6.601270 88.313858,6.949545 85.396370,5.446197 
	C83.599121,5.113707 82.203308,5.060598 80.395615,5.090270 
	C79.463158,5.584498 78.901794,6.083342 78.270432,6.115982 
	C67.116516,6.692616 55.958618,7.359365 44.422615,5.464646 
	C42.944748,5.126232 41.872429,5.071532 40.402611,5.091269 
	C38.003864,6.759035 35.611656,6.529777 33.298157,6.546007 
	C25.466702,6.600945 17.633524,6.639316 9.803747,6.537701 
	C5.964637,6.487877 4.494071,8.049323 4.503837,11.879573 
	C4.514345,16.000965 5.268660,20.217680 3.430201,24.627201 
	C3.114851,26.078619 3.060814,27.152094 3.091357,28.620983 
	C3.116550,54.271091 3.033791,79.525757 3.004460,104.780487 
	C2.976089,129.207855 3.002732,153.635284 3.002605,178.531342 
	C2.372586,178.588165 0.878463,179.973709 0.988195,177.999344 
	C1.052836,176.836258 1.000000,175.666672 1.000000,174.500000 
	C1.000000,116.666672 1.000000,58.833347 1.000000,1.000011 
	C58.999985,1.000000 117.000061,1.038469 174.999725,0.902978 
	C178.424591,0.894977 179.105362,1.575089 179.097122,5.000191 
	C178.960648,61.666523 179.009628,118.333290 178.939453,174.999863 
	C178.937851,176.296387 180.067566,178.100204 177.500000,179.000000 
	C175.943207,177.836594 175.521561,176.416687 175.498993,174.898315 
	C175.351654,164.985657 175.221786,155.072403 175.570908,145.161011 
	C175.600266,144.327713 175.887268,143.543930 176.550491,142.392197 
	C176.875259,133.969482 176.918762,125.955925 176.892059,117.479416 
z"/>
<path fill="#EBEAEA" opacity="1.000000" stroke="none" 
	d="
M176.463547,141.994537 
	C176.884125,154.009598 176.936493,166.036163 176.994431,178.531372 
	C167.979111,179.000000 158.958206,179.000000 149.468658,179.000000 
	C149.189178,177.059769 150.228058,175.770660 151.741013,174.517807 
	C159.236420,168.310852 164.884415,160.542374 169.792862,152.236557 
	C170.856567,150.436615 171.246201,148.214142 171.809082,146.148895 
	C172.429123,143.873993 173.505737,142.188126 176.463547,141.994537 
z"/>
<path fill="#EBEAEA" opacity="1.000000" stroke="none" 
	d="
M66.472626,79.021355 
	C70.178406,79.951675 74.310211,80.128044 74.493744,84.678139 
	C74.658150,88.754150 70.311035,91.814697 64.199371,91.929016 
	C53.726032,92.124916 43.246353,91.991264 32.769402,91.966293 
	C31.953362,91.964348 31.137260,91.733604 30.322233,91.602669 
	C26.037560,90.914345 23.374451,87.632614 23.612280,84.105095 
	C23.863823,80.374245 27.781971,78.999100 31.607347,79.004761 
	C43.082172,79.021744 54.557041,79.011772 66.472626,79.021355 
z"/>
<path fill="#EBEAEA" opacity="1.000000" stroke="none" 
	d="
M66.584076,140.995697 
	C70.174484,141.304581 73.247131,141.824066 72.936707,146.024963 
	C72.646713,149.949280 70.296555,151.136826 66.473366,151.075165 
	C54.842907,150.887589 43.205124,150.873627 31.575279,151.079422 
	C27.450779,151.152405 25.080742,149.724686 25.064556,145.578125 
	C25.046963,141.070770 28.362177,140.963608 31.730371,140.976913 
	C43.197487,141.022217 54.664890,140.994080 66.584076,140.995697 
z"/>
<path fill="#EBEAEA" opacity="1.000000" stroke="none" 
	d="
M55.956078,58.997711 
	C60.594830,58.944870 64.707306,59.010296 68.807457,59.941036 
	C71.493454,60.550762 73.038170,61.827045 72.963776,64.598038 
	C72.880974,67.681946 71.030357,69.003784 68.084625,69.004745 
	C55.441364,69.008896 42.797562,68.944405 30.155226,69.052979 
	C26.936716,69.080605 25.554941,67.304115 25.153448,64.639839 
	C24.727127,61.810772 26.511700,60.526234 29.140621,59.937290 
	C37.865894,57.982613 46.697273,59.477951 55.956078,58.997711 
z"/>
<path fill="#EBEAEA" opacity="1.000000" stroke="none" 
	d="
M30.069569,100.809113 
	C42.877968,99.662346 55.271946,99.236618 67.639374,100.970924 
	C70.104080,101.316551 72.967857,101.802765 72.871056,105.124039 
	C72.778931,108.284645 70.297012,108.812347 67.579643,109.121521 
	C55.022266,110.550262 42.479488,110.493881 29.925961,109.164192 
	C27.393366,108.895943 25.201620,108.007492 25.114178,105.140152 
	C25.027149,102.286339 27.032274,101.136581 30.069569,100.809113 
z"/>
<path fill="#EBEAEA" opacity="1.000000" stroke="none" 
	d="
M100.878143,83.280930 
	C100.987831,86.827568 99.777176,89.969215 96.986786,90.771248 
	C92.843544,91.962120 88.713783,90.468193 85.837143,87.079292 
	C84.342987,85.319077 84.424957,83.051498 86.450958,81.368813 
	C89.568367,78.779678 97.994164,79.686653 100.878143,83.280930 
z"/>
<path fill="#EBEAEA" opacity="1.000000" stroke="none" 
	d="
M99.031525,60.802021 
	C100.490990,63.947666 100.772240,67.089127 97.639824,68.390419 
	C94.492317,69.697975 90.775421,69.871399 87.705070,67.610779 
	C86.153114,66.468109 85.725822,64.550102 86.101883,62.659500 
	C86.495949,60.678452 88.221626,60.110840 89.872787,60.083954 
	C92.818054,60.035995 95.813995,59.482872 99.031525,60.802021 
z"/>
<path fill="#E6E5E5" opacity="1.000000" stroke="none" 
	d="
M84.998199,5.581110 
	C114.589104,5.111423 144.183884,5.135516 173.776703,4.905996 
	C177.739929,4.875257 176.995148,7.097022 176.995255,9.311166 
	C176.996765,42.900372 176.989899,76.489578 176.906830,110.542038 
	C171.777649,108.555840 168.006897,104.395332 163.765366,100.909317 
	C162.012070,99.468315 164.596771,98.126770 165.555618,96.962067 
	C171.016922,90.328239 168.764771,77.502007 161.413528,74.817375 
	C156.874741,73.159851 152.314926,73.136894 148.464661,76.987442 
	C146.072357,79.379921 142.642349,80.347321 140.665329,83.581116 
	C138.849350,86.551506 136.396942,89.461403 132.085464,85.370338 
	C129.733307,83.138443 124.698761,83.684441 122.980019,80.871941 
	C121.325920,78.165215 124.896477,74.848007 124.852814,71.610817 
	C124.667007,57.835506 126.086578,44.021961 123.968422,30.292974 
	C123.823120,29.351223 123.562050,28.221973 122.938393,27.592474 
	C118.665558,23.279612 113.156181,24.827641 108.254150,25.327845 
	C104.712189,25.689270 103.958649,29.468132 103.960976,32.846001 
	C103.961411,33.477303 103.940216,34.204617 102.760551,34.545834 
	C100.690468,31.636684 97.794716,29.262739 96.264801,25.693583 
	C95.139488,23.068333 93.252945,20.788857 90.342888,20.008705 
	C86.765961,19.049770 85.759056,16.844172 85.915009,13.347173 
	C86.023483,10.915001 85.334297,8.447257 84.998199,5.581110 
z"/>
<path fill="#FEFEFE" opacity="1.000000" stroke="none" 
	d="
M44.017021,5.600168 
	C55.697407,5.130651 67.377754,5.080371 79.520920,5.101572 
	C80.328125,6.783511 80.617500,8.408113 81.027267,10.001758 
	C82.222244,14.649231 83.474739,18.926506 88.076935,21.967501 
	C92.099129,24.625242 95.615623,28.301214 97.238930,33.381241 
	C98.965157,38.783325 96.628624,42.910057 90.920067,42.944923 
	C71.979034,43.060627 53.036449,43.059464 34.095394,42.946465 
	C28.415361,42.912579 25.629059,38.346062 27.566040,32.948586 
	C29.221085,28.336742 32.577129,24.598692 36.419006,22.461779 
	C43.396900,18.580561 43.271591,12.296872 44.017021,5.600168 
z"/>
<path fill="#E6E5E5" opacity="1.000000" stroke="none" 
	d="
M3.624191,25.003700 
	C3.112819,19.388678 3.202076,13.765389 2.938819,8.158653 
	C2.808951,5.392759 3.881753,4.921999 6.345993,4.949530 
	C17.255589,5.071413 28.167250,5.008555 39.541641,5.089130 
	C39.642441,8.932981 39.333485,12.706884 38.870247,16.461754 
	C38.781166,17.183813 38.202812,18.305578 37.653393,18.440273 
	C31.534420,19.940361 29.083336,25.171745 25.774246,29.629700 
	C24.080807,31.911079 21.653028,36.395958 20.666340,28.933189 
	C20.351555,26.552332 17.954742,24.910009 15.021592,24.981293 
	C11.376209,25.069887 7.727033,25.002357 3.624191,25.003700 
z"/>
<path fill="#FEFEFE" opacity="1.000000" stroke="none" 
	d="
M142.933014,88.165787 
	C147.617096,79.641205 156.887039,76.693382 162.847900,81.505867 
	C164.226349,82.618752 165.041168,83.876717 164.990616,85.744080 
	C164.831100,91.636520 157.205826,100.744080 151.343536,101.934273 
	C145.123947,103.197006 140.409821,98.179405 141.887634,91.856033 
	C142.149963,90.733551 142.480194,89.626945 142.933014,88.165787 
z"/>
</svg>